<svg width="112" height="131" viewBox="0 0 112 131" fill="none" xmlns="http://www.w3.org/2000/svg">
<path d="M0.609375 116.758L7.17188 107.488C7.76562 106.652 8.70703 106.238 9.99609 106.246C10.5742 106.254 11.0312 106.414 11.3672 106.727C11.6875 107.023 11.8477 107.422 11.8477 107.922V116.336H12.2812C12.9141 116.336 13.4336 116.477 13.8398 116.758C14.2461 117.031 14.457 117.441 14.4727 117.988C14.4805 118.535 14.2891 118.945 13.8984 119.219C13.5078 119.5 12.9922 119.641 12.3516 119.641H11.8477V122.969C11.8477 123.438 11.7031 123.816 11.4141 124.105C11.1016 124.426 10.668 124.586 10.1133 124.586C9.56641 124.578 9.125 124.414 8.78906 124.094C8.46875 123.789 8.30859 123.41 8.30859 122.957C8.30078 121.855 8.29688 120.754 8.29688 119.652L1.71094 119.664C1.23438 119.664 0.847656 119.527 0.550781 119.254C0.253906 118.98 0.105469 118.613 0.105469 118.152C0.105469 117.699 0.273438 117.234 0.609375 116.758ZM4.61719 116.348H8.56641C8.56641 114.707 8.57031 112.969 8.57812 111.133L4.61719 116.348ZM34.5586 109.645C33.6055 109.457 32.7227 109.598 31.9102 110.066C31.1914 110.488 30.5508 111.121 29.9883 111.965C29.3555 112.918 29.043 114.27 29.0508 116.02C29.0508 117.66 29.4141 118.977 30.1406 119.969C30.6719 120.672 31.3711 121.043 32.2383 121.082C33.6211 121.145 34.668 120.969 35.3789 120.555C36.0273 120.188 36.5586 119.926 36.9727 119.77C37.3633 119.613 37.7188 119.566 38.0391 119.629C38.5312 119.723 38.8828 119.969 39.0938 120.367C39.3047 120.758 39.3789 121.238 39.3164 121.809C39.2695 122.23 39.0352 122.602 38.6133 122.922C38.1445 123.281 37.5469 123.602 36.8203 123.883C35.5 124.391 34.0195 124.617 32.3789 124.562C30.1836 124.5 28.5 123.715 27.3281 122.207C26.1953 120.762 25.6328 118.785 25.6406 116.277C25.6406 113.426 26.1602 111.266 27.1992 109.797C28.8086 107.68 30.582 106.48 32.5195 106.199C34.3711 105.941 35.9961 106.145 37.3945 106.809C37.8867 107.043 38.293 107.312 38.6133 107.617C38.9023 107.883 39.0586 108.188 39.082 108.531C39.1211 109.203 38.9453 109.73 38.5547 110.113C38.2266 110.418 37.8711 110.59 37.4883 110.629C37.1289 110.66 36.7422 110.555 36.3281 110.312C35.8203 110.008 35.2305 109.785 34.5586 109.645ZM47.3555 114.695C47.9883 114.688 48.6172 114.68 49.2422 114.672C49.7656 114.664 50.1875 114.531 50.5078 114.273C50.8281 114.008 50.9844 113.645 50.9766 113.184C50.9688 112.715 50.8086 112.344 50.4961 112.07C50.1523 111.773 49.7344 111.625 49.2422 111.625H41.9766C41.4531 111.625 41.0273 111.754 40.6992 112.012C40.3711 112.262 40.207 112.621 40.207 113.09C40.207 113.566 40.3594 113.949 40.6641 114.238C40.9609 114.52 41.3672 114.668 41.8828 114.684L44.0039 114.707L43.957 123.062C43.957 123.539 44.0938 123.93 44.3672 124.234C44.6562 124.562 45.0352 124.73 45.5039 124.738C46.0586 124.746 46.5 124.594 46.8281 124.281C47.1328 123.992 47.2852 123.574 47.2852 123.027L47.3555 114.695ZM52.3477 123.027L52.1016 112.973C52.0938 112.582 52.2188 112.277 52.4766 112.059C52.7188 111.848 53.0156 111.738 53.3672 111.73C53.7266 111.723 54.0703 111.82 54.3984 112.023C54.7344 112.227 54.9102 112.512 54.9258 112.879L55.1836 119.852L61.1484 112.938C61.8281 112.148 62.5352 111.746 63.2695 111.73C63.7617 111.723 64.1602 111.82 64.4648 112.023C64.7617 112.234 64.918 112.52 64.9336 112.879L65.2383 122.922C65.2539 123.477 65.1367 123.898 64.8867 124.188C64.6602 124.445 64.3203 124.582 63.8672 124.598C63.3828 124.605 63.0078 124.484 62.7422 124.234C62.4141 123.922 62.2422 123.52 62.2266 123.027L62.0625 116.043L55.2656 123.93C54.8672 124.391 54.375 124.621 53.7891 124.621C52.8516 124.605 52.3711 124.074 52.3477 123.027ZM67.582 111.965C67.8633 111.809 68.1641 111.727 68.4844 111.719C68.8203 111.711 69.1211 111.766 69.3867 111.883C69.7852 112.055 70.0781 112.25 70.2656 112.469L73.4414 116.16L76.5938 112.469C76.7812 112.25 77.0742 112.051 77.4727 111.871C77.7383 111.754 78.043 111.703 78.3867 111.719C78.7305 111.727 79.0273 111.809 79.2773 111.965C79.3242 111.988 79.3672 112.016 79.4062 112.047C79.7656 112.305 79.9336 112.59 79.9102 112.902C79.8633 113.543 79.6641 114.059 79.3125 114.449L75.8906 118.234L79.0078 121.598C79.25 121.863 79.457 122.227 79.6289 122.688C79.7773 123.062 79.8125 123.414 79.7344 123.742C79.6875 123.945 79.5117 124.137 79.207 124.316C78.9336 124.473 78.6367 124.559 78.3164 124.574C77.9805 124.582 77.6758 124.527 77.4023 124.41C76.9883 124.223 76.6836 124.02 76.4883 123.801L73.4414 120.32L70.4297 123.801C70.2422 124.02 69.9375 124.223 69.5156 124.41C69.25 124.527 68.9453 124.582 68.6016 124.574C68.2812 124.566 67.9883 124.48 67.7227 124.316C67.418 124.137 67.2383 123.941 67.1836 123.73C67.1055 123.402 67.1406 123.055 67.2891 122.688C67.4453 122.242 67.6562 121.879 67.9219 121.598L71.0508 118.258L67.5469 114.449C67.5156 114.418 67.4648 114.352 67.3945 114.25C67.0664 113.758 66.918 113.25 66.9492 112.727C66.9648 112.438 67.1758 112.184 67.582 111.965ZM81.8086 123.027L81.5625 112.973C81.5547 112.582 81.6797 112.277 81.9375 112.059C82.1797 111.848 82.4766 111.738 82.8281 111.73C83.1875 111.723 83.5312 111.82 83.8594 112.023C84.1953 112.227 84.3711 112.512 84.3867 112.879L84.6445 119.852L90.6094 112.938C91.2891 112.148 91.9961 111.746 92.7305 111.73C93.2227 111.723 93.6211 111.82 93.9258 112.023C94.2227 112.234 94.3789 112.52 94.3945 112.879L94.6992 122.922C94.7148 123.477 94.5977 123.898 94.3477 124.188C94.1211 124.445 93.7812 124.582 93.3281 124.598C92.8438 124.605 92.4688 124.484 92.2031 124.234C91.875 123.922 91.7031 123.52 91.6875 123.027L91.5234 116.043L84.7266 123.93C84.3281 124.391 83.8359 124.621 83.25 124.621C82.3125 124.605 81.832 124.074 81.8086 123.027ZM97.0898 123.027L96.8438 112.973C96.8359 112.582 96.9609 112.277 97.2188 112.059C97.4609 111.848 97.7578 111.738 98.1094 111.73C98.4688 111.723 98.8125 111.82 99.1406 112.023C99.4766 112.227 99.6523 112.512 99.668 112.879L99.9258 119.852L105.891 112.938C106.57 112.148 107.277 111.746 108.012 111.73C108.504 111.723 108.902 111.82 109.207 112.023C109.504 112.234 109.66 112.52 109.676 112.879L109.98 122.922C109.996 123.477 109.879 123.898 109.629 124.188C109.402 124.445 109.062 124.582 108.609 124.598C108.125 124.605 107.75 124.484 107.484 124.234C107.156 123.922 106.984 123.52 106.969 123.027L106.805 116.043L100.008 123.93C99.6094 124.391 99.1172 124.621 98.5312 124.621C97.5938 124.605 97.1133 124.074 97.0898 123.027Z" fill="#222222"/>
<g clip-path="url(#clip0_102_2)">
<path d="M59.139 3.0625H65.2832C72.1164 25.993 65.3023 45.9375 65.3023 45.9375H59.139C59.139 45.9375 65.9531 25.9355 59.139 3.0625Z" fill="white" stroke="black" stroke-miterlimit="10"/>
<path d="M92.8265 3.0625H98.9707C105.804 25.993 98.9898 45.9375 98.9898 45.9375H92.8265C92.8265 45.9375 99.6406 25.9355 92.8265 3.0625Z" fill="white" stroke="black" stroke-miterlimit="10"/>
<path d="M69.8578 3.0625H76.0019C82.8351 25.993 76.0211 45.9375 76.0211 45.9375H69.8578C69.8578 45.9375 76.6719 25.9355 69.8578 3.0625Z" fill="white" stroke="black" stroke-miterlimit="10"/>
<path d="M82.1078 3.10083H88.2519C95.0852 26.0313 88.2711 45.9758 88.2711 45.9758H82.1078C82.1078 45.9758 88.9219 25.993 82.1078 3.10083Z" fill="white" stroke="black" stroke-miterlimit="10"/>
<path d="M53.0332 52.0817H10.0817V58.2067H53.0332V52.0817Z" fill="#81BC06" stroke="black" stroke-miterlimit="10"/>
<path d="M53.0332 64.3317H10.0817V70.4567H53.0332V64.3317Z" fill="#81BC06" stroke="black" stroke-miterlimit="10"/>
<path d="M53.0715 76.5817H10.1199V82.7067H53.0715V76.5817Z" fill="#81BC06" stroke="black" stroke-miterlimit="10"/>
<path d="M53.0523 88.8317H10.1008V94.9567H53.0523V88.8317Z" fill="#81BC06" stroke="black" stroke-miterlimit="10"/>
<path d="M59.139 71.2222V65.4609C59.139 65.4609 65.2066 63.432 68.9199 63.432C72.614 63.432 89.1898 66.2648 92.9988 66.2648C96.6738 66.2648 102.033 63.4894 102.033 63.4894V69.2508C102.033 69.2508 98.7218 72.1027 92.9988 72.1027C89.1898 72.1027 72.6332 68.8871 68.9199 68.8871C65.2066 68.8679 61.1297 69.825 59.139 71.2222Z" fill="#05A6F0" stroke="black" stroke-miterlimit="10"/>
<path d="M59.139 94.191V88.4297C59.139 88.4297 65.2066 86.4008 68.9199 86.4008C72.614 86.4008 89.1898 89.2336 92.9988 89.2336C96.6738 89.2336 102.033 86.4582 102.033 86.4582V92.2195C102.033 92.2195 98.7218 95.0715 92.9988 95.0715C89.1898 95.0715 72.6332 91.8558 68.9199 91.8558C65.2066 91.8558 61.1297 92.7937 59.139 94.191Z" fill="#05A6F0" stroke="black" stroke-miterlimit="10"/>
<path d="M59.139 82.7449V76.9836C59.139 76.9836 65.2066 74.9547 68.9199 74.9547C72.614 74.9547 89.1898 77.7875 92.9988 77.7875C96.6738 77.7875 102.033 75.0121 102.033 75.0121V80.7734C102.033 80.7734 98.7218 83.6254 92.9988 83.6254C89.1898 83.6254 72.6332 80.4098 68.9199 80.4098C65.2066 80.4098 61.1297 81.3477 59.139 82.7449Z" fill="#05A6F0" stroke="black" stroke-miterlimit="10"/>
<path d="M59.139 59.8719V54.1106C59.139 54.1106 65.2066 52.0817 68.9199 52.0817C72.614 52.0817 89.1898 54.9145 92.9988 54.9145C96.6738 54.9145 102.033 52.1391 102.033 52.1391V57.9004C102.033 57.9004 98.7218 60.7524 92.9988 60.7524C89.1898 60.7524 72.6332 57.5367 68.9199 57.5367C65.2066 57.5367 61.1297 58.4746 59.139 59.8719Z" fill="#05A6F0" stroke="black" stroke-miterlimit="10"/>
<path d="M10.139 45.9375H17.2211C17.2211 45.9375 21.9488 33.5152 17.2211 24.5957C15.2304 20.6527 11.6894 13.7238 13.5269 3.0625C13.5269 3.0625 9.48826 13.1113 12.5699 24.5766C12.5699 24.5957 16.2258 34.1277 10.139 45.9375Z" fill="#F35325" stroke="black" stroke-miterlimit="10"/>
<path d="M20.8578 45.9757H27.9398C27.9398 45.9757 32.6676 33.5535 27.9398 24.6339C25.9492 20.691 22.4082 13.7621 24.2457 3.11987C24.2457 3.11987 20.207 13.1687 23.2886 24.6339C23.2886 24.6339 26.9445 34.166 20.8578 45.9757Z" fill="#F35325" stroke="black" stroke-miterlimit="10"/>
<path d="M33.1078 45.9757H40.1898C40.1898 45.9757 44.9176 33.5535 40.1898 24.6339C38.1801 20.691 34.639 13.7621 36.4765 3.11987C36.4765 3.11987 32.4379 13.1687 35.5195 24.6339C35.5386 24.6339 39.1945 34.166 33.1078 45.9757Z" fill="#F35325" stroke="black" stroke-miterlimit="10"/>
<path d="M43.8265 45.9757H50.9086C50.9086 45.9757 55.6363 33.5535 50.9086 24.6339C48.8988 20.691 45.3578 13.7621 47.1953 3.11987C47.1953 3.11987 43.1566 13.1687 46.2383 24.6339C46.2574 24.6339 49.9133 34.166 43.8265 45.9757Z" fill="#F35325" stroke="black" stroke-miterlimit="10"/>
</g>
<defs>
<clipPath id="clip0_102_2">
<rect width="98" height="98" fill="white" transform="translate(7)"/>
</clipPath>
</defs>
</svg>
