<svg width="88" height="95" viewBox="0 0 88 95" fill="none" xmlns="http://www.w3.org/2000/svg">
<path d="M7.2168 79.4219L10.2246 75.1733C10.4967 74.7902 10.9282 74.6004 11.519 74.604C11.784 74.6076 11.9935 74.681 12.1475 74.8242C12.2943 74.9603 12.3677 75.1429 12.3677 75.3721V79.2285H12.5664C12.8564 79.2285 13.0946 79.293 13.2808 79.4219C13.467 79.5472 13.5636 79.7352 13.5708 79.9858C13.5744 80.2365 13.4867 80.4245 13.3076 80.5498C13.1286 80.6787 12.8923 80.7432 12.5986 80.7432H12.3677V82.2686C12.3677 82.4834 12.3014 82.6571 12.1689 82.7896C12.0257 82.9364 11.827 83.0098 11.5728 83.0098C11.3221 83.0062 11.1198 82.931 10.9658 82.7842C10.819 82.6445 10.7456 82.4709 10.7456 82.2632C10.742 81.7583 10.7402 81.2534 10.7402 80.7485L7.72168 80.7539C7.50326 80.7539 7.32601 80.6912 7.18994 80.5659C7.05387 80.4406 6.98584 80.2723 6.98584 80.061C6.98584 79.8534 7.06283 79.6403 7.2168 79.4219ZM9.05371 79.2339H10.8638C10.8638 78.4819 10.8656 77.6852 10.8691 76.8438L9.05371 79.2339ZM22.7769 76.1616C22.34 76.0757 21.9354 76.1401 21.563 76.355C21.2336 76.5483 20.9399 76.8384 20.6821 77.2251C20.3921 77.6619 20.2489 78.2814 20.2524 79.0835C20.2524 79.8354 20.4189 80.4388 20.752 80.8936C20.9954 81.2158 21.3159 81.3859 21.7134 81.4038C22.3472 81.4325 22.827 81.3519 23.1528 81.1621C23.45 80.9938 23.6935 80.8739 23.8833 80.8022C24.0623 80.7306 24.2253 80.7091 24.3721 80.7378C24.5977 80.7808 24.7588 80.8936 24.8555 81.0762C24.9521 81.2552 24.9862 81.4754 24.9575 81.7368C24.936 81.9302 24.8286 82.1003 24.6353 82.2471C24.4204 82.4118 24.1465 82.5586 23.8135 82.6875C23.2083 82.9202 22.5298 83.0241 21.7778 82.999C20.7716 82.9704 20 82.6105 19.4629 81.9194C18.9437 81.257 18.6859 80.3511 18.6895 79.2017C18.6895 77.8947 18.9276 76.9046 19.4038 76.2314C20.1414 75.2611 20.9543 74.7114 21.8423 74.5825C22.6909 74.4644 23.4357 74.5575 24.0767 74.8618C24.3022 74.9692 24.4884 75.0928 24.6353 75.2324C24.7677 75.3542 24.8394 75.4938 24.8501 75.6514C24.868 75.9593 24.7874 76.201 24.6084 76.3765C24.458 76.5161 24.2951 76.5949 24.1196 76.6128C23.9549 76.6271 23.7777 76.5788 23.5879 76.4678C23.3551 76.3281 23.0848 76.2261 22.7769 76.1616ZM28.6421 78.4766C28.9321 78.473 29.2204 78.4694 29.5068 78.4658C29.7467 78.4622 29.9401 78.4014 30.0869 78.2832C30.2337 78.1615 30.3053 77.995 30.3018 77.7837C30.2982 77.5688 30.2248 77.3988 30.0815 77.2734C29.924 77.1374 29.7324 77.0693 29.5068 77.0693H26.1768C25.9368 77.0693 25.7417 77.1284 25.5913 77.2466C25.4409 77.3612 25.3657 77.5259 25.3657 77.7407C25.3657 77.9591 25.4355 78.1346 25.5752 78.2671C25.7113 78.396 25.8975 78.464 26.1338 78.4712L27.106 78.4819L27.0845 82.3115C27.0845 82.5299 27.1471 82.709 27.2725 82.8486C27.4049 82.999 27.5786 83.076 27.7935 83.0796C28.0477 83.0832 28.25 83.0133 28.4004 82.8701C28.54 82.7376 28.6099 82.5461 28.6099 82.2954L28.6421 78.4766ZM30.9302 82.2954L30.8174 77.687C30.8138 77.508 30.8711 77.3683 30.9893 77.2681C31.1003 77.1714 31.2363 77.1213 31.3975 77.1177C31.5622 77.1141 31.7197 77.1589 31.8701 77.252C32.0241 77.3451 32.1047 77.4757 32.1118 77.644L32.23 80.8398L34.9639 77.6709C35.2754 77.3092 35.5994 77.1248 35.936 77.1177C36.1616 77.1141 36.3442 77.1589 36.4839 77.252C36.62 77.3486 36.6916 77.4793 36.6987 77.644L36.8384 82.2471C36.8455 82.5013 36.7918 82.6947 36.6772 82.8271C36.5734 82.9453 36.4176 83.008 36.21 83.0151C35.988 83.0187 35.8161 82.9632 35.6943 82.8486C35.5439 82.7054 35.4652 82.521 35.458 82.2954L35.3828 79.0942L32.2676 82.709C32.085 82.9202 31.8594 83.0259 31.5908 83.0259C31.1611 83.0187 30.9409 82.7752 30.9302 82.2954ZM37.9126 77.2251C38.0415 77.1535 38.1794 77.1159 38.3262 77.1123C38.4801 77.1087 38.618 77.1338 38.7397 77.1875C38.9224 77.2663 39.0566 77.3558 39.1426 77.4561L40.5981 79.1479L42.043 77.4561C42.1289 77.3558 42.2632 77.2645 42.4458 77.1821C42.5675 77.1284 42.7072 77.1051 42.8647 77.1123C43.0223 77.1159 43.1584 77.1535 43.2729 77.2251C43.2944 77.2358 43.3141 77.2484 43.332 77.2627C43.4967 77.3809 43.5737 77.5116 43.563 77.6548C43.5415 77.9484 43.4502 78.1847 43.2891 78.3638L41.7207 80.0986L43.1494 81.6401C43.2604 81.7619 43.3553 81.9284 43.4341 82.1396C43.5021 82.3115 43.5182 82.4727 43.4824 82.623C43.4609 82.7161 43.3804 82.8039 43.2407 82.8862C43.1154 82.9578 42.9793 82.9972 42.8325 83.0044C42.6785 83.008 42.5389 82.9829 42.4136 82.9292C42.2238 82.8433 42.0841 82.7502 41.9946 82.6499L40.5981 81.0547L39.2178 82.6499C39.1318 82.7502 38.9922 82.8433 38.7988 82.9292C38.6771 82.9829 38.5374 83.008 38.3799 83.0044C38.2331 83.0008 38.0988 82.9614 37.9771 82.8862C37.8374 82.8039 37.755 82.7144 37.73 82.6177C37.6942 82.4673 37.7103 82.3079 37.7783 82.1396C37.8499 81.9355 37.9466 81.769 38.0684 81.6401L39.5024 80.1094L37.8965 78.3638C37.8822 78.3494 37.8589 78.319 37.8267 78.2725C37.6763 78.0469 37.6082 77.8141 37.6226 77.5742C37.6297 77.4417 37.7264 77.3254 37.9126 77.2251ZM44.4331 82.2954L44.3203 77.687C44.3167 77.508 44.374 77.3683 44.4922 77.2681C44.6032 77.1714 44.7393 77.1213 44.9004 77.1177C45.0651 77.1141 45.2227 77.1589 45.373 77.252C45.527 77.3451 45.6076 77.4757 45.6147 77.644L45.7329 80.8398L48.4668 77.6709C48.7783 77.3092 49.1024 77.1248 49.439 77.1177C49.6646 77.1141 49.8472 77.1589 49.9868 77.252C50.1229 77.3486 50.1945 77.4793 50.2017 77.644L50.3413 82.2471C50.3485 82.5013 50.2948 82.6947 50.1802 82.8271C50.0763 82.9453 49.9206 83.008 49.7129 83.0151C49.4909 83.0187 49.319 82.9632 49.1973 82.8486C49.0469 82.7054 48.9681 82.521 48.9609 82.2954L48.8857 79.0942L45.7705 82.709C45.5879 82.9202 45.3623 83.0259 45.0938 83.0259C44.6641 83.0187 44.4438 82.7752 44.4331 82.2954ZM51.437 82.2954L51.3242 77.687C51.3206 77.508 51.3779 77.3683 51.4961 77.2681C51.6071 77.1714 51.7432 77.1213 51.9043 77.1177C52.069 77.1141 52.2266 77.1589 52.377 77.252C52.5309 77.3451 52.6115 77.4757 52.6187 77.644L52.7368 80.8398L55.4707 77.6709C55.7822 77.3092 56.1063 77.1248 56.4429 77.1177C56.6685 77.1141 56.8511 77.1589 56.9907 77.252C57.1268 77.3486 57.1984 77.4793 57.2056 77.644L57.3452 82.2471C57.3524 82.5013 57.2987 82.6947 57.1841 82.8271C57.0802 82.9453 56.9245 83.008 56.7168 83.0151C56.4948 83.0187 56.3229 82.9632 56.2012 82.8486C56.0508 82.7054 55.972 82.521 55.9648 82.2954L55.8896 79.0942L52.7744 82.709C52.5918 82.9202 52.3662 83.0259 52.0977 83.0259C51.668 83.0187 51.4478 82.7752 51.437 82.2954Z" fill="#222222"/>
<g clip-path="url(#clip0_116_332)">
<path d="M37.7078 2.21484H42.1513C47.0932 18.7985 42.1651 33.2227 42.1651 33.2227H37.7078C37.7078 33.2227 42.6358 18.757 37.7078 2.21484Z" fill="white" stroke="black" stroke-miterlimit="10"/>
<path d="M62.071 2.21484H66.5146C71.4565 18.7985 66.5284 33.2227 66.5284 33.2227H62.071C62.071 33.2227 66.9991 18.757 62.071 2.21484Z" fill="white" stroke="black" stroke-miterlimit="10"/>
<path d="M45.4597 2.21484H49.9033C54.8451 18.7985 49.9171 33.2227 49.9171 33.2227H45.4597C45.4597 33.2227 50.3877 18.757 45.4597 2.21484Z" fill="white" stroke="black" stroke-miterlimit="10"/>
<path d="M54.3191 2.24219H58.7626C63.7045 18.8258 58.7765 33.25 58.7765 33.25H54.3191C54.3191 33.25 59.2471 18.7981 54.3191 2.24219Z" fill="white" stroke="black" stroke-miterlimit="10"/>
<path d="M33.2918 37.666H2.22864V42.0957H33.2918V37.666Z" fill="#81BC06" stroke="black" stroke-miterlimit="10"/>
<path d="M33.2918 46.5254H2.22864V50.9551H33.2918V46.5254Z" fill="#81BC06" stroke="black" stroke-miterlimit="10"/>
<path d="M33.3195 55.3848H2.25635V59.8145H33.3195V55.3848Z" fill="#81BC06" stroke="black" stroke-miterlimit="10"/>
<path d="M33.3057 64.2441H2.24255V68.6738H33.3057V64.2441Z" fill="#81BC06" stroke="black" stroke-miterlimit="10"/>
<path d="M37.7078 51.509V47.3423C37.7078 47.3423 42.0959 45.875 44.7814 45.875C47.4531 45.875 59.4409 47.9237 62.1956 47.9237C64.8534 47.9237 68.7294 45.9165 68.7294 45.9165V50.0832C68.7294 50.0832 66.3346 52.1458 62.1956 52.1458C59.4409 52.1458 47.4669 49.8202 44.7814 49.8202C42.0959 49.8063 39.1474 50.4985 37.7078 51.509Z" fill="#05A6F0" stroke="black" stroke-miterlimit="10"/>
<path d="M37.7078 68.1203V63.9537C37.7078 63.9537 42.0959 62.4863 44.7814 62.4863C47.4531 62.4863 59.4409 64.5351 62.1956 64.5351C64.8534 64.5351 68.7294 62.5279 68.7294 62.5279V66.6945C68.7294 66.6945 66.3346 68.7571 62.1956 68.7571C59.4409 68.7571 47.4669 66.4315 44.7814 66.4315C42.0959 66.4315 39.1474 67.1098 37.7078 68.1203Z" fill="#05A6F0" stroke="black" stroke-miterlimit="10"/>
<path d="M37.7078 59.842V55.6753C37.7078 55.6753 42.0959 54.208 44.7814 54.208C47.4531 54.208 59.4409 56.2567 62.1956 56.2567C64.8534 56.2567 68.7294 54.2495 68.7294 54.2495V58.4162C68.7294 58.4162 66.3346 60.4788 62.1956 60.4788C59.4409 60.4788 47.4669 58.1532 44.7814 58.1532C42.0959 58.1532 39.1474 58.8315 37.7078 59.842Z" fill="#05A6F0" stroke="black" stroke-miterlimit="10"/>
<path d="M37.7078 43.3V39.1333C37.7078 39.1333 42.0959 37.666 44.7814 37.666C47.4531 37.666 59.4409 39.7147 62.1956 39.7147C64.8534 39.7147 68.7294 37.7075 68.7294 37.7075V41.8742C68.7294 41.8742 66.3346 43.9368 62.1956 43.9368C59.4409 43.9368 47.4669 41.6112 44.7814 41.6112C42.0959 41.6112 39.1474 42.2895 37.7078 43.3Z" fill="#05A6F0" stroke="black" stroke-miterlimit="10"/>
<path d="M2.27026 33.2227H7.39209C7.39209 33.2227 10.8113 24.2387 7.39209 17.788C5.95244 14.9364 3.39153 9.92527 4.72043 2.21484C4.72043 2.21484 1.79961 9.4823 4.0283 17.7741C4.0283 17.788 6.67227 24.6817 2.27026 33.2227Z" fill="#F35325" stroke="black" stroke-miterlimit="10"/>
<path d="M10.0222 33.2508H15.144C15.144 33.2508 18.5632 24.2668 15.144 17.8161C13.7044 14.9645 11.1435 9.95342 12.4724 2.25684C12.4724 2.25684 9.55156 9.52429 11.7802 17.8161C11.7802 17.8161 14.4242 24.7098 10.0222 33.2508Z" fill="#F35325" stroke="black" stroke-miterlimit="10"/>
<path d="M18.8816 33.2508H24.0034C24.0034 33.2508 27.4226 24.2668 24.0034 17.8161C22.5499 14.9645 19.989 9.95342 21.3179 2.25684C21.3179 2.25684 18.3971 9.52429 20.6258 17.8161C20.6396 17.8161 23.2836 24.7098 18.8816 33.2508Z" fill="#F35325" stroke="black" stroke-miterlimit="10"/>
<path d="M26.6335 33.2508H31.7554C31.7554 33.2508 35.1745 24.2668 31.7554 17.8161C30.3019 14.9645 27.741 9.95342 29.0699 2.25684C29.0699 2.25684 26.149 9.52429 28.3777 17.8161C28.3916 17.8161 31.0355 24.7098 26.6335 33.2508Z" fill="#F35325" stroke="black" stroke-miterlimit="10"/>
</g>
<defs>
<clipPath id="clip0_116_332">
<rect width="70.875" height="70.875" fill="white"/>
</clipPath>
</defs>
</svg>
